<?xml version="1.0" encoding="UTF-8" standalone="no"?>
<!-- Created with Inkscape (http://www.inkscape.org/) -->

<svg
   version="1.1"
   id="svg1791"
   width="829.3562"
   height="774.69568"
   viewBox="0 0 829.35621 774.69566"
   sodipodi:docname="Hazelnut1c.svg"
   inkscape:version="1.2.2 (732a01da63, 2022-12-09, custom)"
   xmlns:inkscape="http://www.inkscape.org/namespaces/inkscape"
   xmlns:sodipodi="http://sodipodi.sourceforge.net/DTD/sodipodi-0.dtd"
   xmlns="http://www.w3.org/2000/svg"
   xmlns:svg="http://www.w3.org/2000/svg">
  <defs
     id="defs1795" />
  <sodipodi:namedview
     id="namedview1793"
     pagecolor="#ffffff"
     bordercolor="#000000"
     borderopacity="0.25"
     inkscape:showpageshadow="2"
     inkscape:pageopacity="0.0"
     inkscape:pagecheckerboard="0"
     inkscape:deskcolor="#d1d1d1"
     showgrid="false"
     inkscape:zoom="0.85839035"
     inkscape:cx="513.75228"
     inkscape:cy="478.80315"
     inkscape:window-width="1920"
     inkscape:window-height="1031"
     inkscape:window-x="0"
     inkscape:window-y="25"
     inkscape:window-maximized="1"
     inkscape:current-layer="layer1" />
  <g
     inkscape:groupmode="layer"
     id="layer1"
     inkscape:label="Layer 1">
    <path
       id="path1909"
       style="fill:#222b00;stroke-width:5.73589"
       d="M 177.16381 -358.87131 C 174.71605 -359.1975 172.95017 -357.81904 172.79272 -354.2678 C 172.68775 -351.90173 167.42205 -343.74404 161.09155 -336.14085 C 152.35947 -325.65313 147.97571 -323.92271 142.92749 -328.97092 C 139.26775 -332.63068 133.13328 -335.62522 129.29467 -335.62522 C 120.38478 -335.62522 59.222414 -248.63833 47.943112 -219.92405 L 39.392331 -198.15452 L 26.657956 -225.30491 C 19.653778 -240.23751 0.48352449 -269.14818 -15.941654 -289.551 C -32.366824 -309.95384 -50.048986 -333.82908 -55.234623 -342.60764 C -67.355979 -363.12749 -73.106 -362.7741 -77.412357 -341.24241 C -82.179576 -317.40612 -87.078001 -316.18812 -98.744388 -335.93772 C -109.92319 -354.86198 -116.63797 -357.01558 -123.91626 -344.00999 C -128.16335 -336.42085 -134.48488 -336.05908 -169.08814 -341.42796 C -221.78363 -349.60395 -265.35348 -342.37785 -319.13501 -316.54319 C -376.91545 -288.78761 -377.68067 -287.92082 -377.5647 -250.31858 C -377.34613 -179.47967 -355.15045 -114.27531 -316.81275 -71.840065 C -299.94416 -53.16855 -297.61841 -47.592998 -302.72095 -38.058815 C -312.76254 -19.295924 -309.87933 -14.416237 -288.75611 -14.416237 C -272.29142 -14.416237 -268.68189 -12.28428 -268.68189 -2.5666275 C -268.68189 3.9502715 -271.54101 14.624744 -275.0354 21.154076 C -280.97064 32.244177 -280.30866 32.713317 -264.99634 28.282982 C -255.98114 25.674594 -214.45116 23.296378 -172.70728 22.997826 L -96.808841 22.454857 L -110.74244 37.001732 C -121.8444 48.593352 -176.9065 161.03893 -176.9065 172.11892 C -176.9065 173.63183 -171.69222 174.86892 -165.31861 174.86892 C -153.75605 174.86892 -153.75611 174.92153 -165.71509 198.36306 L -177.70142 221.8572 L -150.344 219.87283 L -122.98658 217.88845 L -118.34009 240.11892 C -106.33388 297.54501 -68.83593 347.27253 -4.8908725 390.57204 C 15.581248 404.43451 35.368922 415.77712 39.081784 415.77712 C 50.64342 415.77712 130.80573 359.37238 149.49389 338.08767 C 170.37367 314.30697 192.80749 271.66681 198.65014 244.65408 C 202.26686 227.93241 204.53469 225.96917 216.71069 229.02517 C 229.3377 232.19436 230.28892 231.14461 226.92749 217.75173 C 223.50806 204.1275 224.38245 203.27427 238.2146 206.74587 L 253.20874 210.50954 L 244.531 185.91384 C 239.75828 172.38639 231.87672 145.65491 227.01538 126.50954 C 222.15403 107.36412 215.753 82.398925 212.79272 71.032982 C 209.83243 59.667127 201.60138 44.181487 194.49975 36.618919 L 181.58764 22.868919 L 245.64233 21.396263 C 280.87239 20.586513 316.36381 22.45869 324.51147 25.556419 C 341.79024 32.125759 342.24768 30.818396 330.57397 8.2439194 L 321.82202 -8.6799087 L 339.17749 -8.6799087 C 358.71635 -8.6799088 358.53848 -8.3908622 351.06225 -28.054909 C 346.11779 -41.059798 349.33633 -46.188812 384.57592 -81.484596 C 428.85012 -125.82937 438.83353 -148.35065 448.53686 -225.75803 C 453.14049 -262.48313 452.89986 -275.59975 447.50366 -282.10178 C 436.99608 -294.76264 404.46716 -309.98703 357.34155 -324.301 C 321.91662 -335.06099 305.92185 -336.66409 256.08178 -334.44749 C 198.46366 -331.88493 196.72979 -332.16983 190.79663 -345.19163 C 187.21759 -353.04684 181.24342 -358.32767 177.16381 -358.87131 z M 39.232174 -113.94358 L 46.075924 -94.29319 C 49.83998 -83.485392 58.892618 -65.608247 66.193112 -54.566627 L 79.466549 -34.490456 L 37.515377 -34.258034 C -0.34547094 -34.047406 -3.6354461 -34.907015 3.7595181 -43.078346 C 8.2660854 -48.05809 18.089769 -66.039269 25.591549 -83.037331 L 39.232174 -113.94358 z "
       transform="translate(377.57056,358.91819)" />
    <path
       id="path1953"
       style="fill:#aa4400;stroke-width:5.73589"
       d="M -208.14283 -329.87913 C -245.41349 -329.67468 -278.13137 -321.04991 -317.69361 -302.06663 L -365.82642 -278.97092 L -362.62915 -239.90256 C -356.24506 -161.8913 -339.43074 -115.40922 -305.2229 -81.201393 C -289.95792 -65.936397 -262.94556 -60.425653 -262.94556 -72.576393 C -262.94556 -76.172028 -267.45982 -82.413362 -272.97681 -86.447487 C -282.1258 -93.137372 -281.57607 -94.142933 -266.72876 -97.869362 C -244.02476 -103.56771 -187.80805 -97.657384 -167.79908 -87.468971 C -138.33653 -72.46687 -125.28345 -70.071176 -125.28345 -79.666237 C -125.28345 -91.907492 -144.81346 -104.11808 -186.67017 -118.0471 C -206.53827 -124.65877 -222.79322 -132.88076 -222.79322 -136.31858 C -222.79322 -139.7564 -227.2084 -147.44857 -232.60376 -153.41038 C -241.06634 -162.76144 -241.26291 -164.97675 -234.03736 -169.5471 C -229.43069 -172.46093 -219.7641 -174.88356 -212.55494 -174.93186 C -201.38095 -175.00666 -200.32323 -176.65742 -205.38501 -186.11546 C -216.29732 -206.50529 -212.77359 -220.90842 -196.87329 -220.90842 C -181.50487 -220.90842 -181.81499 -218.34548 -191.57642 -264.80296 L -194.77173 -280.0178 L -178.67017 -269.39671 C -169.81369 -263.55546 -151.6328 -252.6369 -138.26978 -245.13303 L -113.97486 -231.49046 L -125.23853 -256.31272 C -131.43408 -269.96514 -136.55986 -290.62934 -136.62915 -302.23264 L -136.75611 -323.32835 L -168.93189 -327.34983 C -182.78952 -329.08123 -195.71927 -329.94728 -208.14283 -329.87913 z M 276.41967 -323.26585 C 267.46165 -323.42344 258.61587 -323.09749 249.89819 -322.28342 C 229.42137 -320.37127 210.19188 -317.27671 207.16577 -315.40647 C 204.13963 -313.53623 201.66186 -302.19396 201.66186 -290.20139 C 201.66186 -276.7714 196.48392 -260.76489 188.17944 -248.52756 L 174.69702 -228.66038 L 211.73803 -238.92991 C 232.11013 -244.57892 252.74493 -252.49387 257.5935 -256.5178 C 265.3922 -262.99014 266.06941 -260.19954 263.4646 -232.33225 C 261.8451 -215.00684 258.46839 -195.93285 255.96264 -189.94553 C 251.99137 -180.45639 253.43663 -179.44889 267.22241 -182.08421 C 281.14846 -184.74634 282.74509 -183.57066 280.58178 -172.25413 C 279.2306 -165.18573 280.92544 -159.45233 284.34741 -159.51194 C 306.16927 -159.89202 316.38061 -156.79787 316.38061 -149.80686 C 316.38061 -139.53282 268.16593 -108.55778 229.08764 -93.726784 C 194.26443 -80.510688 184.45483 -73.617697 184.45483 -62.359596 C 184.45483 -52.702771 200.66748 -56.040489 248.85131 -75.619362 C 282.06178 -89.113958 302.05653 -91.916811 318.92553 -85.443581 C 326.30488 -82.611875 326.75982 -80.235837 321.19897 -73.535377 C 315.69298 -66.901041 315.95967 -64.083099 322.48608 -59.953346 C 327.01536 -57.087362 332.54042 -54.70283 334.76538 -54.654518 C 343.77429 -54.458783 401.74729 -116.79965 412.91772 -138.69553 C 425.22295 -162.81578 436.71407 -219.27706 436.79077 -255.9885 C 436.82947 -276.09249 435.63284 -277.26857 397.74585 -294.20921 C 356.1497 -312.80834 315.23779 -322.58293 276.41967 -323.26585 z M 98.193112 76.687279 C 90.190877 75.450403 86.823133 101.85955 89.509518 147.99587 C 91.652263 184.79695 90.805546 203.06596 87.064206 200.75369 C 83.668095 198.65477 82.831884 201.10601 85.009518 206.78103 C 88.038546 214.67446 86.274009 215.60588 74.906002 212.11306 C 67.330572 209.78555 57.830654 205.23728 53.794674 202.00564 C 48.517677 197.78012 42.775393 199.58781 33.349362 208.44314 C 15.05672 225.62817 8.5054713 223.88686 4.1520962 200.68142 C -0.17383228 177.6222 -5.5937884 176.38175 -35.480716 191.61892 L -57.084232 202.63454 L -62.504154 188.37869 C -65.485166 180.53799 -67.933774 169.77423 -67.94556 164.45876 C -67.95901 158.12255 -71.590827 160.71998 -78.488529 172.00173 C -84.274971 181.46597 -93.299863 192.75214 -98.543216 197.08181 C -103.78657 201.41158 -108.07642 211.06231 -108.07642 218.52908 C -108.07642 238.79699 -89.318674 284.30265 -68.480716 314.58962 C -50.268395 341.06036 23.669447 398.57009 39.489987 398.57009 C 43.947641 398.57009 59.674486 390.37547 74.439206 380.36111 C 137.11381 337.85122 164.86486 304.67278 181.21264 252.699 L 191.11694 221.20681 L 175.40405 200.60525 C 158.75569 178.77801 150.30373 181.36156 150.12671 208.32986 C 150.00841 226.33771 138.5525 221.67323 124.7185 197.98611 C 117.48826 185.60625 112.3075 162.31713 109.82202 131.02322 C 107.72603 104.63353 104.16232 81.193603 101.9021 78.933373 C 100.57393 77.605202 99.336288 76.863975 98.193112 76.687279 z "
       transform="translate(377.57056,358.91819)" />
    <path
       id="path1947"
       style="fill:#44aa00;stroke-width:5.73589"
       d="M 178.25171 -337.60178 L 163.36889 -315.69944 L 148.48608 -293.7971 L 138.73413 -306.72483 L 128.98413 -319.65256 L 103.02514 -283.18577 C 60.140126 -222.94308 50.474266 -199.93537 50.361081 -157.81272 C 50.189435 -93.958308 81.585667 -40.6671 135.69897 -12.961159 C 172.6722 5.9691125 184.05032 7.9570717 248.72631 6.7790756 C 309.30209 5.6758041 310.08401 5.4857021 306.89624 -7.246315 C 304.05904 -18.578404 305.86439 -20.150612 321.69702 -20.150612 C 337.61724 -20.150612 339.0475 -21.42375 333.91186 -31.019752 C 330.71269 -36.997437 320.32301 -44.597062 310.82397 -47.908424 C 298.679 -52.142199 294.56865 -56.577557 296.97631 -62.851784 C 302.24801 -76.589552 276.73078 -74.147767 240.94897 -57.490456 C 205.5863 -41.028247 174.32331 -38.664912 169.18139 -52.064674 C 163.22444 -67.588165 177.80473 -89.204924 200.24194 -98.115456 C 251.21587 -118.35884 264.75757 -125.56987 264.75756 -132.47288 C 264.75756 -136.50645 270.56563 -140.92602 277.66381 -142.29319 C 287.28696 -144.14671 285.96434 -144.97832 272.4646 -145.56077 C 257.00722 -146.22768 254.82398 -148.11312 257.531 -158.46506 C 260.18881 -168.62839 258.78805 -169.98313 248.8728 -166.83616 C 233.68335 -162.0152 227.97637 -171.35379 236.44311 -187.17405 C 240.09007 -193.98847 245.26441 -207.19995 247.94116 -216.53342 C 252.61368 -232.82553 252.18715 -233.35782 237.27319 -229.87522 C 181.15838 -216.77171 157.59297 -205.69462 130.7146 -179.78733 C 102.05319 -152.1614 87.244972 -148.07011 99.152096 -171.06663 C 102.72828 -177.97334 123.17475 -201.84714 144.5896 -224.11936 C 186.62546 -267.8381 196.08018 -290.70888 184.60131 -320.90061 L 178.25171 -337.60178 z M -65.056888 -329.6135 L -69.806888 -311.1096 C -77.228093 -282.20663 -82.820173 -281.19508 -96.881107 -306.21311 C -104.05564 -318.97851 -112.09063 -328.08471 -114.73658 -326.44944 C -117.38252 -324.81417 -119.54712 -311.67279 -119.54712 -297.24631 C -119.54712 -265.32149 -106.64975 -243.00992 -71.064701 -213.37717 C -41.589598 -188.8324 -7.2609837 -134.72154 -17.248294 -128.54905 C -20.709192 -126.41011 -34.08151 -137.75346 -47.451419 -154.16819 C -69.009651 -180.63608 -153.26317 -243.85178 -166.98072 -243.85178 C -170.12318 -243.85178 -170.84637 -235.3133 -168.68189 -223.77561 C -165.17902 -205.10376 -165.93711 -203.69944 -179.51587 -203.69944 C -196.17289 -203.69944 -196.94126 -200.75298 -185.51001 -180.75608 C -173.56406 -159.85879 -174.67414 -157.85256 -198.41626 -157.42405 C -218.08465 -157.06905 -218.82081 -156.50415 -207.01978 -150.81272 C -199.92161 -147.3894 -194.11548 -142.6088 -194.11548 -140.18967 C -194.11548 -137.77056 -181.44721 -131.58395 -165.96509 -126.44163 C -130.747 -114.74405 -106.65319 -93.359927 -109.12134 -75.990456 C -111.59857 -58.556904 -135.02263 -56.461283 -167.38697 -70.777565 C -194.42775 -82.739028 -251.4729 -92.903551 -251.4729 -85.759987 C -251.4729 -83.395696 -245.11659 -73.126865 -237.3479 -62.941627 L -223.22486 -44.424049 L -246.11744 -50.234596 C -265.6205 -55.184985 -270.78006 -54.449056 -280.95142 -45.267799 L -292.89087 -34.490456 L -276.48462 -31.597877 C -262.55262 -29.140624 -259.82419 -25.680163 -258.39478 -8.6545181 L -256.71119 11.396263 L -175.2229 8.4236069 C -104.38073 5.838924 -90.363726 3.6919264 -67.924076 -8.0060806 C -1.575801 -42.594117 25.662575 -85.098602 26.331784 -155.08616 C 26.786324 -202.62184 15.955753 -226.9754 -33.510013 -289.64475 L -65.056888 -329.6135 z M 39.888424 -19.861549 C -33.417117 -20.539935 -101.54258 24.419279 -134.0022 105.95486 C -143.40327 129.56958 -152.04673 151.13596 -153.20923 153.88064 C -154.37172 156.62535 -146.94976 157.03243 -136.71704 154.78494 C -116.4832 150.34083 -116.56333 151.35871 -138.8479 181.96853 C -153.71197 202.38555 -147.32463 207.97783 -122.60376 196.18923 C -99.306101 185.07938 -86.269341 162.47279 -81.426029 124.77908 C -77.436771 93.732304 -58.085502 54.415794 -46.793216 54.415794 C -37.323812 54.415794 -37.333759 54.557532 -48.472904 76.886498 C -55.121096 90.213169 -57.078215 106.41018 -55.472904 134.82009 C -54.247371 156.50901 -51.782519 175.71755 -49.994388 177.50564 C -48.206284 179.29374 -37.958253 177.19321 -27.220951 172.83962 C -16.483647 168.48599 -0.76046101 163.28126 7.7185025 161.27322 C 22.748307 157.7138 23.051412 158.16264 19.810299 179.15212 L 16.486081 200.68142 L 31.472409 186.93337 C 44.02396 175.41854 47.903575 174.38773 55.36694 180.58181 C 68.868572 191.78712 72.719872 183.08695 71.447018 144.24978 C 68.294783 48.065079 115.23603 28.145444 124.12866 121.89431 C 126.14425 143.14349 129.24459 168.13745 131.01733 177.43533 L 134.23999 194.33962 L 148.75561 169.7615 L 163.27124 145.18337 L 171.30444 164.28689 C 175.72244 174.7943 185.00501 189.45931 191.93335 196.87673 L 204.531 210.36306 L 206.37085 195.22634 C 207.76656 183.74326 210.64899 180.86383 218.31421 183.29665 C 227.43808 186.19245 226.87467 180.60419 212.50952 125.7029 C 194.34899 56.296521 187.42433 43.585717 154.9646 20.072044 C 118.10499 -6.6289374 78.286565 -19.506205 39.888424 -19.861549 z "
       transform="translate(377.57056,358.91819)" />
  </g>
</svg>
